# File created by Blade
# Date/Time:  Tue Jan 27 19:58:39 2015
#---------------------------------------------------------
:version 1.10
:name HOM
:units
  mass 1.0
  length 1.000000
  angle deg
:documentation
     Acclaim Skeleton File
:root
   axis xyz
   order TX TY TZ RX RY RZ
   position 0.000000 0.000000 0.000000
   orientation 0 0 0
:bonedata
   begin
      id 1
      name Spine_dum
      direction 0.000000 1.000000 0.000000
      length 6.116652
      axis 0.0 0.0 0.0 xyz
   end
   begin
      id 2
      name LeftUpLeg_dum
      direction 1.000000 0.000000 0.000000
      length 4.711765
      axis 0.0 0.0 0.0 xyz
   end
   begin
      id 3
      name RightUpLeg_dum
      direction -1.000000 0.000000 0.000000
      length 4.711765
      axis 0.0 0.0 0.0 xyz
   end
   begin
      id 4
      name Spine
      direction 0.000000 1.000000 0.000000
      length 0.000000
      axis 0.0 0.0 0.0 xyz
      dof rx ry rz
   end
   begin
      id 5
      name Spine_dum1
      direction 0.000000 1.000000 0.000000
      length 15.225563
      axis 0.0 0.0 0.0 xyz
   end
   begin
      id 6
      name Spine_dum2
      direction 0.000000 1.000000 0.000000
      length 8.977654
      axis 0.0 0.0 0.0 xyz
   end
   begin
      id 7
      name Spine_dum3
      direction 0.000000 1.000000 0.000000
      length 8.977654
      axis 0.0 0.0 0.0 xyz
   end
   begin
      id 8
      name Head
      direction 0.000000 1.000000 0.000000
      length 4.527550
      axis 0.0 0.0 0.0 xyz
      dof rx ry rz
   end
   begin
      id 9
      name LeftShoulder
      direction 1.000000 0.000000 0.000000
      length 7.110130
      axis 0.0 0.0 -90.0 xyz
      dof rx ry rz
   end
   begin
      id 10
      name LeftArm
      direction 1.000000 0.000000 0.000000
      length 10.398341
      axis 0.0 0.0 -90.0 xyz
      dof rx ry rz
   end
   begin
      id 11
      name LeftForeArm
      direction 1.000000 0.000000 0.000000
      length 8.888997
      axis 0.0 0.0 -90.0 xyz
      dof ry rz rx
   end
   begin
      id 12
      name LeftHand
      direction 0.000000 0.000000 0.000000
      length 0.000000
      axis 0.0 0.0 -90.0 xyz
      dof rx ry rz
   end
   begin
      id 13
      name LeftHand_dum1
      direction 0.000000 0.000000 0.000000
      length 0.000000
      axis 0.0 0.0 -90.0 xyz
   end
   begin
      id 14
      name LeftHand_dum2
      direction 1.000000 0.000000 0.000000
      length 3.937000
      axis 0.0 0.0 -90.0 xyz
   end
   begin
      id 15
      name LeftHandThumb1
      direction 0.000000 0.000000 1.000000
      length 3.937000
      axis 0.0 0.0 -90.0 xyz
      dof rx rz ry
   end
   begin
      id 16
      name RightShoulder
      direction -1.000000 0.000000 0.000000
      length 7.110130
      axis 0.0 0.0 90.0 xyz
      dof rx ry rz
   end
   begin
      id 17
      name RightArm
      direction -1.000000 0.000000 0.000000
      length 10.398341
      axis 0.0 0.0 90.0 xyz
      dof rx ry rz
   end
   begin
      id 18
      name RightForeArm
      direction -1.000000 0.000000 0.000000
      length 8.888997
      axis 0.0 0.0 90.0 xyz
      dof ry rz rx
   end
   begin
      id 19
      name RightHand
      direction 0.000000 0.000000 0.000000
      length 0.000000
      axis 0.0 0.0 90.0 xyz
      dof rx ry rz
   end
   begin
      id 20
      name RightHand_dum1
      direction 0.000000 0.000000 0.000000
      length 0.000000
      axis 0.0 0.0 90.0 xyz
   end
   begin
      id 21
      name RightHand_dum2
      direction -1.000000 0.000000 0.000000
      length 3.937000
      axis 0.0 0.0 90.0 xyz
   end
   begin
      id 22
      name RightHandThumb1
      direction 0.000000 0.000000 1.000000
      length 3.937000
      axis 0.0 0.0 90.0 xyz
      dof rx rz ry
   end
   begin
      id 23
      name LeftUpLeg
      direction 0.000000 -1.000000 0.000000
      length 15.510451
      axis 0.0 0.0 0.0 xyz
      dof rx ry rz
   end
   begin
      id 24
      name LeftLeg
      direction 0.000000 -1.000000 0.000000
      length 14.858061
      axis 0.0 0.0 0.0 xyz
      dof rx ry rz
   end
   begin
      id 25
      name LeftFoot
      direction 0.000000 -0.258819 0.965926
      length 5.128852
      axis 15.0 0.0 0.0 xyz
      dof rx ry rz
   end
   begin
      id 26
      name LeftToeBase
      direction 0.000000 0.000000 1.000000
      length 2.952750
      axis 0.0 0.0 0.0 xyz
      dof rx ry rz
   end
   begin
      id 27
      name RightUpLeg
      direction 0.000000 -1.000000 0.000000
      length 15.510451
      axis 0.0 0.0 0.0 xyz
      dof rx ry rz
   end
   begin
      id 28
      name RightLeg
      direction 0.000000 -1.000000 0.000000
      length 14.858061
      axis 0.0 0.0 0.0 xyz
      dof rx ry rz
   end
   begin
      id 29
      name RightFoot
      direction 0.000000 -0.258819 0.965926
      length 5.128852
      axis 15.0 0.0 0.0 xyz
      dof rx ry rz
   end
   begin
      id 30
      name RightToeBase
      direction 0.000000 0.000000 1.000000
      length 2.952750
      axis 0.0 0.0 0.0 xyz
      dof rx ry rz
   end
:hierarchy
   begin
      root Spine_dum LeftUpLeg_dum RightUpLeg_dum
      Spine_dum Spine
      LeftUpLeg_dum LeftUpLeg
      RightUpLeg_dum RightUpLeg
      Spine Spine_dum1 Spine_dum2 Spine_dum3
      Spine_dum1 Head
      Spine_dum2 LeftShoulder
      Spine_dum3 RightShoulder
      LeftShoulder LeftArm
      LeftArm LeftForeArm
      LeftForeArm LeftHand
      LeftHand LeftHand_dum1 LeftHand_dum2
      LeftHand_dum1 LeftHandThumb1
      RightShoulder RightArm
      RightArm RightForeArm
      RightForeArm RightHand
      RightHand RightHand_dum1 RightHand_dum2
      RightHand_dum1 RightHandThumb1
      LeftUpLeg LeftLeg
      LeftLeg LeftFoot
      LeftFoot LeftToeBase
      RightUpLeg RightLeg
      RightLeg RightFoot
      RightFoot RightToeBase
   end

# File created by Blade
# Date/Time:  Tue Jan 27 19:58:31 2015
# Frame Rate: 120.000 fps
#------------------------------------------------------
:FULLY-SPECIFIED
:DEGREES
1210
root 5.871300 33.648368 2.592216 -15.317018 2.070023 -20.877845
Spine 12.257730 4.103172 16.466502
Head 11.389154 -13.799771 7.210700
LeftShoulder -13.807824 2.301468 31.183803
LeftArm -8.662986 2.540241 -83.815095
LeftForeArm -6.480530 0.000000 118.729285
LeftHand 12.074266 0.000000 -5.558975
LeftHandThumb1 -26.253704 0.000000 33.147579
RightShoulder -19.992873 -15.180071 -19.329517
RightArm 14.087848 -18.315958 82.925066
RightForeArm -13.784780 -0.000000 16.163806
RightHand 17.241925 0.000000 7.212316
RightHandThumb1 -24.326973 -0.000000 -32.862282
LeftUpLeg 17.385553 3.405408 15.177267
LeftLeg 3.576513 -0.000000 -0.000000
LeftFoot -18.780528 9.366432 -17.502176
LeftToeBase 23.562863 -0.000000 -0.000000
RightUpLeg -71.182090 11.128398 2.984083
RightLeg 115.878944 -0.000000 -0.000000
RightFoot 26.203199 -31.699942 18.984406
RightToeBase 9.065438 -0.000000 -0.000000
1211
root 5.882968 33.676369 2.610640 -15.472114 2.322082 -21.183039
Spine 12.276868 3.674038 16.836154
Head 11.405598 -13.752849 7.086880
LeftShoulder -13.788436 2.242038 31.162823
LeftArm -8.805581 2.577789 -83.923236
LeftForeArm -6.496681 0.000000 118.529596
LeftHand 12.162582 -0.000000 -5.458562
LeftHandThumb1 -26.253704 0.000000 33.147579
RightShoulder -20.054097 -15.158973 -19.336485
RightArm 14.039050 -18.215908 82.820713
RightForeArm -13.664426 -0.000000 16.231919
RightHand 17.168342 -0.000000 7.412935
RightHandThumb1 -24.326973 -0.000000 -32.862282
LeftUpLeg 17.555088 3.480303 15.549249
LeftLeg 3.336838 -0.000000 -0.000000
LeftFoot -18.546313 9.009205 -17.423542
LeftToeBase 23.678744 -0.000000 -0.000000
RightUpLeg -70.988593 11.152549 1.988718
RightLeg 116.469800 -0.000000 -0.000000
RightFoot 26.417543 -31.251900 18.309810
RightToeBase 8.766427 -0.000000 -0.000000
1212
root 5.897327 33.701092 2.627528 -15.587933 2.540291 -21.455868
Spine 12.258374 3.308768 17.174335
Head 11.425581 -13.724450 7.004530
LeftShoulder -13.789602 2.280565 31.133907
LeftArm -8.816611 2.618278 -84.041435
LeftForeArm -6.466863 -0.000000 118.310249
LeftHand 12.283955 -0.000000 -5.534648
LeftHandThumb1 -26.253704 0.000000 33.147579
RightShoulder -20.130010 -15.185528 -19.307040
RightArm 14.026065 -18.039481 82.700770
RightForeArm -13.632976 0.000000 16.292053
RightHand 17.221092 -0.000000 7.573209
RightHandThumb1 -24.326973 -0.000000 -32.862282
LeftUpLeg 17.682595 3.617055 15.899665
LeftLeg 3.134846 -0.000000 -0.000000
LeftFoot -18.341244 8.592771 -17.394932
LeftToeBase 23.942743 -0.000000 -0.000000
RightUpLeg -70.831217 11.046245 1.173227
RightLeg 116.991833 -0.000000 -0.000000
RightFoot 26.524288 -31.077718 18.140691
RightToeBase 8.659503 -0.000000 -0.000000
1213
root 5.911008 33.723302 2.638172 -15.651768 2.737284 -21.700948
Spine 12.198121 3.007239 17.471773
Head 11.452917 -13.721935 6.963090
LeftShoulder -13.762935 2.192385 31.147065
LeftArm -8.945629 2.661994 -84.169786
LeftForeArm -6.437947 -0.000000 118.109488
LeftHand 12.410878 0.000000 -5.525985
LeftHandThumb1 -26.253704 0.000000 33.147579
RightShoulder -20.189931 -15.227933 -19.247526
RightArm 14.010044 -17.873073 82.575432
RightForeArm -13.660250 -0.000000 16.351424
RightHand 17.240564 -0.000000 7.529885
RightHandThumb1 -24.326973 -0.000000 -32.862282
LeftUpLeg 17.731181 3.777118 16.217188
LeftLeg 2.998302 -0.000000 -0.000000
LeftFoot -18.089183 8.211774 -17.176685
LeftToeBase 23.902758 -0.000000 -0.000000
RightUpLeg -70.713992 10.847617 0.522560
RightLeg 117.446597 -0.000000 -0.000000
RightFoot 26.824655 -30.651692 17.922523
RightToeBase 8.271348 -0.000000 -0.000000
1214
root 5.928561 33.741088 2.646358 -15.697660 2.883716 -21.889448
Spine 12.147341 2.778953 17.726604
Head 11.459229 -13.733597 6.944708
LeftShoulder -13.725904 2.086171 31.163397
LeftArm -9.084698 2.686355 -84.298473
LeftForeArm -6.488306 -0.000000 117.925471
LeftHand 12.506294 -0.000000 -5.490014
LeftHandThumb1 -26.253704 0.000000 33.147579
RightShoulder -20.255217 -15.249616 -19.199312
RightArm 13.979935 -17.782844 82.440464
RightForeArm -13.663272 0.000000 16.370501
RightHand 17.340879 -0.000000 7.382544
RightHandThumb1 -24.326973 -0.000000 -32.862282
LeftUpLeg 17.787713 3.939857 16.463929
LeftLeg 2.841803 -0.000000 -0.000000
LeftFoot -17.910607 7.862745 -17.160516
LeftToeBase 24.111583 -0.000000 -0.000000
RightUpLeg -70.591573 10.490991 0.053984
RightLeg 117.875819 -0.000000 -0.000000
RightFoot 26.821931 -30.241355 18.103793
RightToeBase 8.537334 -0.000000 -0.000000
1215
root 5.947638 33.754973 2.651710 -15.714973 2.994866 -22.031443
Spine 12.087263 2.621029 17.943621
Head 11.447716 -13.713090 6.968982
LeftShoulder -13.709440 2.164282 31.117812
LeftArm -8.998128 2.716377 -84.401298
LeftForeArm -6.510868 0.000000 117.748983
LeftHand 12.630051 -0.000000 -5.570456
LeftHandThumb1 -26.253704 0.000000 33.147579
RightShoulder -20.337216 -15.298863 -19.132400
RightArm 14.007875 -17.705648 82.279038
RightForeArm -13.546348 -0.000000 16.356666
RightHand 17.407260 -0.000000 7.340148
RightHandThumb1 -24.326973 -0.000000 -32.862282
LeftUpLeg 17.813711 4.059801 16.638624
LeftLeg 2.710029 -0.000000 -0.000000
LeftFoot -17.806391 7.597091 -17.265735
LeftToeBase 24.368138 -0.000000 -0.000000
RightUpLeg -70.510105 10.085035 -0.239200
RightLeg 118.242247 -0.000000 -0.000000
RightFoot 27.525050 -29.691985 17.186216
RightToeBase 8.144075 -0.000000 -0.000000
1216
root 5.966834 33.765672 2.654239 -15.694110 3.050985 -22.142648
Spine 12.012225 2.539033 18.129806
Head 11.420758 -13.736337 7.003620
LeftShoulder -13.671443 2.064896 31.128775
LeftArm -9.097662 2.765165 -84.507096
LeftForeArm -6.535478 0.000000 117.602752
LeftHand 12.706197 0.000000 -5.649584
LeftHandThumb1 -26.253704 0.000000 33.147579
RightShoulder -20.421371 -15.371747 -19.038540
RightArm 14.019286 -17.527193 82.133274
RightForeArm -13.483189 -0.000000 16.415193
RightHand 17.372567 -0.000000 7.588665
RightHandThumb1 -24.326973 -0.000000 -32.862282
LeftUpLeg 17.811317 4.174656 16.772109
LeftLeg 2.621688 -0.000000 -0.000000
LeftFoot -17.704532 7.382510 -17.268366
LeftToeBase 24.536710 -0.000000 -0.000000
RightUpLeg -70.489961 9.644464 -0.407883
RightLeg 118.576629 -0.000000 -0.000000
RightFoot 27.840604 -29.331514 17.058474
RightToeBase 7.909760 -0.000000 -0.000000
1217
root 5.982651 33.773865 2.655650 -15.661492 3.039783 -22.232293
Spine 11.951949 2.525182 18.298594
Head 11.384840 -13.776636 7.055652
LeftShoulder -13.627200 2.019250 31.123685
LeftArm -9.135345 2.797155 -84.577040
LeftForeArm -6.568313 -0.000000 117.477712
LeftHand 12.745798 -0.000000 -5.716110
LeftHandThumb1 -26.253704 0.000000 33.147579
RightShoulder -20.480217 -15.420101 -18.962312
RightArm 13.968202 -17.348809 82.053599
RightForeArm -13.631557 -0.000000 16.450065
RightHand 17.463021 0.000000 7.557103
RightHandThumb1 -24.326973 -0.000000 -32.862282
LeftUpLeg 17.811014 4.272988 16.882837
LeftLeg 2.565205 -0.000000 -0.000000
LeftFoot -17.645689 7.200914 -17.335008
LeftToeBase 24.740849 -0.000000 -0.000000
RightUpLeg -70.506105 9.243494 -0.423582
RightLeg 118.872771 -0.000000 -0.000000
RightFoot 27.940553 -29.227691 17.283099
RightToeBase 8.071110 -0.000000 -0.000000
1218
root 5.997267 33.777902 2.657039 -15.614118 2.954911 -22.288299
Spine 11.904416 2.553883 18.435718
Head 11.342089 -13.776118 7.114189
LeftShoulder -13.613164 1.977099 31.120747
LeftArm -9.195352 2.824490 -84.624780
LeftForeArm -6.667799 -0.000000 117.386009
LeftHand 12.785271 -0.000000 -5.820803
LeftHandThumb1 -26.253704 0.000000 33.147579
RightShoulder -20.531916 -15.480134 -18.901183
RightArm 14.003807 -17.359898 81.922570
RightForeArm -13.600677 -0.000000 16.427257
RightHand 17.429466 -0.000000 7.463176
RightHandThumb1 -24.326973 -0.000000 -32.862282
LeftUpLeg 17.830546 4.385182 16.963161
LeftLeg 2.515437 -0.000000 -0.000000
LeftFoot -17.619647 7.082390 -17.383828
LeftToeBase 24.791202 -0.000000 -0.000000
RightUpLeg -70.545585 8.853565 -0.307719
RightLeg 119.121730 -0.000000 -0.000000
RightFoot 28.125537 -29.093665 17.245592
RightToeBase 7.915136 -0.000000 -0.000000
